<mxfile host="app.diagrams.net" modified="2023-05-31T14:12:04.067Z" agent="Mozilla/5.0 (Windows NT 10.0; Win64; x64) AppleWebKit/537.36 (KHTML, like Gecko) Chrome/113.0.0.0 Safari/537.36" etag="aLkUqH22OjUoRpfjXK1c" version="21.3.6" type="google">
  <diagram name="Page-1" id="unkSK5TSkwsUHBKt1nz_">
    <mxGraphModel grid="1" page="1" gridSize="10" guides="1" tooltips="1" connect="1" arrows="1" fold="1" pageScale="1" pageWidth="850" pageHeight="1100" math="0" shadow="0">
      <root>
        <mxCell id="0" />
        <mxCell id="1" parent="0" />
        <mxCell id="21M6xeROyAZrqePHG9mC-13" style="edgeStyle=orthogonalEdgeStyle;rounded=0;orthogonalLoop=1;jettySize=auto;html=1;exitX=0.5;exitY=1;exitDx=0;exitDy=0;entryX=0.5;entryY=0;entryDx=0;entryDy=0;" edge="1" parent="1" source="21M6xeROyAZrqePHG9mC-1" target="21M6xeROyAZrqePHG9mC-2">
          <mxGeometry relative="1" as="geometry" />
        </mxCell>
        <mxCell id="21M6xeROyAZrqePHG9mC-1" value="Client navigates Shopping cart section&amp;nbsp;" style="rounded=1;whiteSpace=wrap;html=1;" vertex="1" parent="1">
          <mxGeometry x="80" y="90" width="120" height="60" as="geometry" />
        </mxCell>
        <mxCell id="21M6xeROyAZrqePHG9mC-12" style="edgeStyle=orthogonalEdgeStyle;rounded=0;orthogonalLoop=1;jettySize=auto;html=1;exitX=0.5;exitY=1;exitDx=0;exitDy=0;" edge="1" parent="1" source="21M6xeROyAZrqePHG9mC-2" target="21M6xeROyAZrqePHG9mC-3">
          <mxGeometry relative="1" as="geometry" />
        </mxCell>
        <mxCell id="21M6xeROyAZrqePHG9mC-2" value="Click &quot;Checkout&quot;" style="rounded=1;whiteSpace=wrap;html=1;" vertex="1" parent="1">
          <mxGeometry x="80" y="180" width="120" height="60" as="geometry" />
        </mxCell>
        <mxCell id="21M6xeROyAZrqePHG9mC-14" style="edgeStyle=orthogonalEdgeStyle;rounded=0;orthogonalLoop=1;jettySize=auto;html=1;exitX=0.5;exitY=1;exitDx=0;exitDy=0;" edge="1" parent="1" source="21M6xeROyAZrqePHG9mC-3" target="21M6xeROyAZrqePHG9mC-4">
          <mxGeometry relative="1" as="geometry">
            <Array as="points">
              <mxPoint x="140" y="360" />
              <mxPoint x="140" y="360" />
            </Array>
          </mxGeometry>
        </mxCell>
        <mxCell id="21M6xeROyAZrqePHG9mC-3" value="Confirms shipping address and payment method" style="rounded=1;whiteSpace=wrap;html=1;" vertex="1" parent="1">
          <mxGeometry x="80" y="270" width="120" height="60" as="geometry" />
        </mxCell>
        <mxCell id="21M6xeROyAZrqePHG9mC-8" style="edgeStyle=orthogonalEdgeStyle;rounded=0;orthogonalLoop=1;jettySize=auto;html=1;exitX=1;exitY=0.5;exitDx=0;exitDy=0;entryX=0;entryY=0.5;entryDx=0;entryDy=0;" edge="1" parent="1" source="21M6xeROyAZrqePHG9mC-4" target="21M6xeROyAZrqePHG9mC-6">
          <mxGeometry relative="1" as="geometry" />
        </mxCell>
        <mxCell id="21M6xeROyAZrqePHG9mC-4" value="Place order" style="rounded=1;whiteSpace=wrap;html=1;" vertex="1" parent="1">
          <mxGeometry x="90" y="375" width="100" height="50" as="geometry" />
        </mxCell>
        <mxCell id="21M6xeROyAZrqePHG9mC-11" style="edgeStyle=orthogonalEdgeStyle;rounded=0;orthogonalLoop=1;jettySize=auto;html=1;exitX=0.5;exitY=0;exitDx=0;exitDy=0;entryX=1;entryY=0.5;entryDx=0;entryDy=0;" edge="1" parent="1" source="21M6xeROyAZrqePHG9mC-6" target="21M6xeROyAZrqePHG9mC-2">
          <mxGeometry relative="1" as="geometry" />
        </mxCell>
        <mxCell id="21M6xeROyAZrqePHG9mC-25" style="edgeStyle=orthogonalEdgeStyle;rounded=0;orthogonalLoop=1;jettySize=auto;html=1;exitX=1;exitY=0.5;exitDx=0;exitDy=0;entryX=0.013;entryY=0.397;entryDx=0;entryDy=0;entryPerimeter=0;" edge="1" parent="1" source="21M6xeROyAZrqePHG9mC-6" target="21M6xeROyAZrqePHG9mC-7">
          <mxGeometry relative="1" as="geometry" />
        </mxCell>
        <mxCell id="21M6xeROyAZrqePHG9mC-6" value="Order placed successfully?&amp;nbsp;" style="rhombus;whiteSpace=wrap;html=1;" vertex="1" parent="1">
          <mxGeometry x="280" y="360" width="80" height="80" as="geometry" />
        </mxCell>
        <mxCell id="21M6xeROyAZrqePHG9mC-27" value="" style="edgeStyle=orthogonalEdgeStyle;rounded=0;orthogonalLoop=1;jettySize=auto;html=1;" edge="1" parent="1" source="21M6xeROyAZrqePHG9mC-7" target="21M6xeROyAZrqePHG9mC-26">
          <mxGeometry relative="1" as="geometry" />
        </mxCell>
        <mxCell id="21M6xeROyAZrqePHG9mC-7" value="Display confirmation message &amp;amp; order details&amp;nbsp;" style="rounded=1;whiteSpace=wrap;html=1;" vertex="1" parent="1">
          <mxGeometry x="440" y="375" width="120" height="60" as="geometry" />
        </mxCell>
        <mxCell id="21M6xeROyAZrqePHG9mC-15" value="" style="ellipse;html=1;shape=startState;fillColor=#000000;strokeColor=#ff0000;" vertex="1" parent="1">
          <mxGeometry x="125" y="10" width="30" height="30" as="geometry" />
        </mxCell>
        <mxCell id="21M6xeROyAZrqePHG9mC-16" value="" style="edgeStyle=orthogonalEdgeStyle;html=1;verticalAlign=bottom;endArrow=open;endSize=8;strokeColor=#ff0000;rounded=0;" edge="1" parent="1" source="21M6xeROyAZrqePHG9mC-15">
          <mxGeometry relative="1" as="geometry">
            <mxPoint x="140" y="90" as="targetPoint" />
          </mxGeometry>
        </mxCell>
        <mxCell id="21M6xeROyAZrqePHG9mC-29" style="edgeStyle=orthogonalEdgeStyle;rounded=0;orthogonalLoop=1;jettySize=auto;html=1;exitX=1;exitY=0.5;exitDx=0;exitDy=0;" edge="1" parent="1" source="21M6xeROyAZrqePHG9mC-26" target="21M6xeROyAZrqePHG9mC-28">
          <mxGeometry relative="1" as="geometry" />
        </mxCell>
        <mxCell id="21M6xeROyAZrqePHG9mC-31" style="edgeStyle=orthogonalEdgeStyle;rounded=0;orthogonalLoop=1;jettySize=auto;html=1;exitX=0.5;exitY=0;exitDx=0;exitDy=0;" edge="1" parent="1" source="21M6xeROyAZrqePHG9mC-26" target="21M6xeROyAZrqePHG9mC-30">
          <mxGeometry relative="1" as="geometry" />
        </mxCell>
        <mxCell id="21M6xeROyAZrqePHG9mC-26" value="" style="rhombus;whiteSpace=wrap;html=1;direction=west;" vertex="1" parent="1">
          <mxGeometry x="470" y="480" width="60" height="40" as="geometry" />
        </mxCell>
        <mxCell id="21M6xeROyAZrqePHG9mC-32" style="edgeStyle=orthogonalEdgeStyle;rounded=0;orthogonalLoop=1;jettySize=auto;html=1;exitX=0.5;exitY=1;exitDx=0;exitDy=0;" edge="1" parent="1" source="21M6xeROyAZrqePHG9mC-28">
          <mxGeometry relative="1" as="geometry">
            <mxPoint x="500" y="620" as="targetPoint" />
          </mxGeometry>
        </mxCell>
        <mxCell id="21M6xeROyAZrqePHG9mC-28" value="Download order details&amp;nbsp;" style="rounded=1;whiteSpace=wrap;html=1;" vertex="1" parent="1">
          <mxGeometry x="365" y="540" width="95" height="40" as="geometry" />
        </mxCell>
        <mxCell id="21M6xeROyAZrqePHG9mC-30" value="" style="ellipse;html=1;shape=endState;fillColor=#000000;strokeColor=#ff0000;" vertex="1" parent="1">
          <mxGeometry x="485" y="620" width="30" height="30" as="geometry" />
        </mxCell>
      </root>
    </mxGraphModel>
  </diagram>
</mxfile>
